<?xml version="1.0" standalone="no"?>
<!DOCTYPE svg PUBLIC "-//W3C//DTD SVG 20010904//EN"
 "http://www.w3.org/TR/2001/REC-SVG-20010904/DTD/svg10.dtd">
<svg version="1.0" xmlns="http://www.w3.org/2000/svg"
 width="421.000000pt" height="421.000000pt" viewBox="0 0 421.000000 421.000000"
 preserveAspectRatio="xMidYMid meet">
<metadata>
Created by potrace 1.14, written by Peter Selinger 2001-2017
</metadata>
<g transform="translate(0.000000,421.000000) scale(0.100000,-0.100000)"
fill="#000000" stroke="none">
<path d="M1875 4198 c-59 -7 -135 -20 -251 -44 -112 -22 -401 -128 -456 -166
-16 -11 -28 -17 -28 -14 0 11 -292 -171 -310 -193 -3 -4 -30 -26 -60 -50 -100
-78 -212 -192 -314 -319 -55 -69 -126 -168 -126 -176 0 -3 -13 -24 -29 -48
-101 -153 -219 -453 -254 -648 -3 -14 -8 -36 -11 -50 -29 -126 -41 -426 -24
-605 53 -542 341 -1071 773 -1418 250 -201 572 -355 870 -418 101 -21 115 -23
215 -36 75 -9 401 -9 479 0 233 28 486 104 695 209 84 42 234 130 270 159 171
135 227 183 306 266 301 313 495 701 564 1131 16 95 20 167 21 322 0 155 -3
204 -20 325 -37 278 -165 602 -340 861 -48 71 -90 131 -94 134 -3 3 -21 23
-40 45 -226 268 -537 487 -865 610 -94 35 -285 88 -351 98 -37 6 -90 15 -130
23 -50 10 -415 11 -490 2z"/>
</g>
</svg>
